<svg fill="none" stroke-linecap="square" stroke-miterlimit="10" viewBox="0 0 781.47769029 546.9343832" xmlns="http://www.w3.org/2000/svg" xmlns:xlink="http://www.w3.org/1999/xlink"><clipPath id="a"><path d="m0 0h781.47766v546.9344h-781.47766z"/></clipPath><g clip-path="url(#a)"><path d="m0 0h781.47766v546.9344h-781.47766z" fill="none"/><path d="m243.72441 16.961943h524.8189v513.0079h-524.8189z" fill="#fce5cd" fill-rule="evenodd"/><path d="m243.72441 16.961943h524.8189v513.0079h-524.8189z" fill-rule="evenodd" stroke="#000" stroke-linecap="butt" stroke-linejoin="round"/><path d="m364.94128 30.522566h4.9375q1.65625 0 2.53125.265625 1.1875.34375 2.015625 1.2343731.84375.875 1.28125 2.15625.4375 1.28125.4375 3.15625 0 1.640625-.40625 2.84375-.5 1.453125-1.4375 2.359375-.703125.671875-1.890625 1.0625-.890625.28125-2.390625.28125h-5.078125v-13.359373zm2.703125 2.265623v8.84375h2.015625q1.125 0 1.625-.125.65625-.171875 1.078125-.5625.4375-.390625.703125-1.28125.28125-.90625.28125-2.453125 0-1.546875-.28125-2.375-.265625-.828125-.765625-1.28125-.484375-.46875-1.234375-.640625-.5625-.125-2.21875-.125zm16.363586 8.015625 2.546875.421875q-.484375 1.40625-1.546875 2.140625-1.0625.734375-2.65625.734375-2.515625 0-3.734375-1.65625-.953125-1.3125-.953125-3.328125 0-2.40625 1.25-3.765625 1.265625-1.359375 3.1875-1.359375 2.15625 0 3.40625 1.421875 1.25 1.421875 1.1875 4.375h-6.40625q.03125 1.140625.609375 1.78125.59375.625 1.484375.625.59375 0 1-.328125.421875-.328125.625-1.0625zm.15625-2.59375q-.03125-1.109375-.578125-1.6875-.546875-.578125-1.328125-.578125-.84375 0-1.390625.609375-.546875.609375-.53125 1.65625zm4.547577-4h2.390625v1.421875q.46875-.734375 1.25-1.1875.796875-.453125 1.765625-.453125 1.6875 0 2.859375 1.328125 1.171875 1.3125 1.171875 3.671875 0 2.421875-1.1875 3.765625-1.1875 1.34375-2.859375 1.34375-.8125 0-1.46875-.3125-.640625-.328125-1.359375-1.09375v4.875h-2.5625zm2.53125 4.671875q0 1.625.640625 2.40625.65625.78125 1.578125.78125.90625 0 1.484375-.71875.59375-.71875.59375-2.34375 0-1.515625-.609375-2.25-.609375-.75-1.515625-.75-.9375 0-1.5625.734375-.609375.71875-.609375 2.140625zm14.536621 1.921875 2.546875.421875q-.484375 1.40625-1.546875 2.140625-1.0625.734375-2.65625.734375-2.515625 0-3.734375-1.65625-.953125-1.3125-.953125-3.328125 0-2.40625 1.25-3.765625 1.265625-1.359375 3.1875-1.359375 2.15625 0 3.40625 1.421875 1.25 1.421875 1.1875 4.375h-6.40625q.03125 1.140625.609375 1.78125.59375.625 1.484375.625.59375 0 1-.328125.421875-.328125.625-1.0625zm.15625-2.59375q-.03125-1.109375-.578125-1.6875-.546875-.578125-1.328125-.578125-.84375 0-1.390625.609375-.546875.609375-.53125 1.65625zm13.422577 5.671875h-2.5625v-4.9375q0-1.5625-.171875-2.015625-.15625-.46875-.53125-.71875-.359375-.265625-.875-.265625-.671875 0-1.203125.375-.53125.359375-.734375.96875-.1875.59375-.1875 2.21875v4.375h-2.546875v-9.671875h2.375v1.421875q1.265625-1.640625 3.1875-1.640625.84375 0 1.546875.3125.703125.296875 1.0625.78125.359375.46875.5 1.078125.140625.59375.140625 1.703125zm11.474121 0h-2.390625v-1.421875q-.59375.828125-1.40625 1.234375-.796875.40625-1.609375.40625-1.671875 0-2.859375-1.34375-1.1875-1.34375-1.1875-3.75 0-2.453125 1.15625-3.734375 1.15625-1.28125 2.921875-1.28125 1.625 0 2.8125 1.34375v-4.812498h2.5625zm-6.84375-5.046875q0 1.546875.4375 2.234375.609375 1.015625 1.71875 1.015625.890625 0 1.5-.75.625-.765625.625-2.25 0-1.671875-.609375-2.40625-.59375-.734375-1.53125-.734375-.90625 0-1.53125.734375-.609375.71875-.609375 2.15625zm14.958466 1.96875 2.546875.421875q-.484375 1.40625-1.546875 2.140625-1.0625.734375-2.65625.734375-2.515625 0-3.734375-1.65625-.953125-1.3125-.953125-3.328125 0-2.40625 1.25-3.765625 1.265625-1.359375 3.1875-1.359375 2.15625 0 3.40625 1.421875 1.25 1.421875 1.1875 4.375h-6.40625q.03125 1.140625.609375 1.78125.59375.625 1.484375.625.59375 0 1-.328125.421875-.328125.625-1.0625zm.15625-2.59375q-.03125-1.109375-.578125-1.6875-.546875-.578125-1.328125-.578125-.84375 0-1.390625.609375-.546875.609375-.53125 1.65625zm13.422607 5.671875h-2.5625v-4.9375q0-1.5625-.171875-2.015625-.15625-.46875-.53125-.71875-.359375-.265625-.875-.265625-.671875 0-1.203125.375-.53125.359375-.734375.96875-.1875.59375-.1875 2.21875v4.375h-2.546875v-9.671875h2.375v1.421875q1.265625-1.640625 3.1875-1.640625.84375 0 1.546875.3125.703125.296875 1.0625.78125.359375.46875.5 1.078125.140625.59375.140625 1.703125zm11.036591-6.8125-2.53125.453125q-.125-.75-.578125-1.125-.453125-.390625-1.171875-.390625-.953125 0-1.53125.65625-.5625.65625-.5625 2.203125 0 1.734375.578125 2.4375.578125.703125 1.546875.703125.734375 0 1.203125-.40625.46875-.421875.65625-1.421875l2.515625.421875q-.390625 1.734375-1.515625 2.625-1.109375.875-2.96875.875-2.125 0-3.390625-1.328125-1.25-1.34375-1.25-3.71875 0-2.390625 1.265625-3.71875 1.265625-1.34375 3.421875-1.34375 1.765625 0 2.796875.765625 1.046875.75 1.515625 2.3125zm.7194824-2.859375h2.71875l2.328125 6.859375 2.25-6.859375h2.65625l-3.421875 9.3125-.609375 1.6875q-.328125.84375-.640625 1.28125-.3125.453125-.703125.71875-.390625.28125-.96875.4375-.578125.15625-1.3125.15625-.734375 0-1.453125-.15625l-.21875-2q.59375.125 1.078125.125.890625 0 1.3125-.53125.4375-.515625.671875-1.328125zm16.715271 9.671875v-13.359373h2.6875v13.359373zm14.042664 0h-2.5625v-4.9375q0-1.5625-.171875-2.015625-.15625-.46875-.53125-.71875-.359375-.265625-.875-.265625-.671875 0-1.203125.375-.53125.359375-.734375.96875-.1875.59375-.1875 2.21875v4.375h-2.546875v-9.671875h2.375v1.421875q1.265625-1.640625 3.1875-1.640625.84375 0 1.546875.3125.703125.296875 1.0625.78125.359375.46875.5 1.078125.140625.59375.140625 1.703125zm2.536621-10.984375v-2.374998h2.5624695v2.374998zm2.5624695 1.3125v9.375q0 1.84375-.25 2.59375-.23434448.765625-.9218445 1.1875-.6875.4375-1.75.4375-.390625 0-.828125-.0625-.4375-.0625-.953125-.203125l.453125-2.1875q.171875.03125.34375.046875.15625.03125.296875.03125.390625 0 .640625-.171875.25-.15625.328125-.40625.078125-.234375.078125-1.421875v-9.21875zm8.277069 6.59375 2.546875.421875q-.484375 1.40625-1.546875 2.140625-1.0625.734375-2.65625.734375-2.515625 0-3.734375-1.65625-.953125-1.3125-.953125-3.328125 0-2.40625 1.25-3.765625 1.265625-1.359375 3.1875-1.359375 2.15625 0 3.40625 1.421875 1.25 1.421875 1.1875 4.375h-6.40625q.03125 1.140625.609375 1.78125.59375.625 1.484375.625.59375 0 1-.328125.421875-.328125.625-1.0625zm.15625-2.59375q-.03125-1.109375-.578125-1.6875-.546875-.578125-1.328125-.578125-.84375 0-1.390625.609375-.546875.609375-.53125 1.65625zm13.063232-1.140625-2.53125.453125q-.125-.75-.578125-1.125-.453125-.390625-1.171875-.390625-.953125 0-1.53125.65625-.5625.65625-.5625 2.203125 0 1.734375.578125 2.4375.578125.703125 1.546875.703125.734375 0 1.203125-.40625.46875-.421875.65625-1.421875l2.515625.421875q-.390625 1.734375-1.515625 2.625-1.109375.875-2.96875.875-2.125 0-3.390625-1.328125-1.25-1.34375-1.25-3.71875 0-2.390625 1.265625-3.71875 1.265625-1.34375 3.421875-1.34375 1.765625 0 2.796875.765625 1.046875.75 1.515625 2.3125zm6.3757324-2.859375v2.03125h-1.75v3.90625q0 1.1875.046875 1.390625.046875.1875.21875.3125.1875.125.4375.125.359375 0 1.03125-.25l.21875 2q-.890625.375-2.015625.375-.703125 0-1.265625-.234375-.546875-.234375-.8125-.59375-.25-.375-.34375-1-.09375-.453125-.09375-1.8125v-4.21875h-1.171875v-2.03125h1.171875v-1.921875l2.578125-1.4999981v3.421873h1.75zm1.7751465-1.3125v-2.374998h2.5625v2.374998zm0 10.984375v-9.671875h2.5625v9.671875zm4.5895996-4.96875q0-1.28125.625-2.46875.625-1.203125 1.78125-1.828125 1.15625-.625 2.578125-.625 2.1875 0 3.59375 1.421875 1.40625 1.421875 1.40625 3.609375 0 2.1875-1.421875 3.640625-1.421875 1.4375-3.5625 1.4375-1.328125 0-2.546875-.59375-1.203125-.609375-1.828125-1.765625-.625-1.171875-.625-2.828125zm2.625.125q0 1.453125.671875 2.21875.6875.75 1.6875.75 1 0 1.671875-.75.6875-.765625.6875-2.234375 0-1.421875-.6875-2.1875-.671875-.765625-1.671875-.765625-1 0-1.6875.765625-.671875.765625-.671875 2.203125zm18.16156 4.84375h-2.5625v-4.9375q0-1.5625-.171875-2.015625-.15625-.46875-.53125-.71875-.359375-.265625-.875-.265625-.671875 0-1.203125.375-.53125.359375-.734375.96875-.1875.59375-.1875 2.21875v4.375h-2.546875v-9.671875h2.375v1.421875q1.265625-1.640625 3.1875-1.640625.84375 0 1.546875.3125.703125.296875 1.0625.78125.359375.46875.5 1.078125.140625.59375.140625 1.703125zm16.34491-4.90625 2.609375.828125q-.59375 2.1875-2 3.25-1.390625 1.0625-3.546875 1.0625-2.65625 0-4.375-1.8125-1.703125-1.828125-1.703125-4.984375 0-3.328125 1.71875-5.171875 1.71875-1.8437481 4.515625-1.8437481 2.453125 0 3.984375 1.4375.921875.8593731 1.375 2.468748l-2.671875.640625q-.234375-1.046875-.984375-1.640625-.75-.609375-1.828125-.609375-1.484375 0-2.421875 1.078125-.921875 1.0625-.921875 3.4375 0 2.53125.90625 3.609375.921875 1.078125 2.375 1.078125 1.078125 0 1.84375-.671875.78125-.6875 1.125-2.15625zm4.3167114-.0625q0-1.28125.625-2.46875.625-1.203125 1.78125-1.828125 1.15625-.625 2.578125-.625 2.1875 0 3.59375 1.421875 1.40625 1.421875 1.40625 3.609375 0 2.1875-1.421875 3.640625-1.421875 1.4375-3.5625 1.4375-1.328125 0-2.546875-.59375-1.203125-.609375-1.828125-1.765625-.625-1.171875-.625-2.828125zm2.625.125q0 1.453125.671875 2.21875.6875.75 1.6875.75 1 0 1.671875-.75.6875-.765625.6875-2.234375 0-1.421875-.6875-2.1875-.671875-.765625-1.671875-.765625-1 0-1.6875.765625-.671875.765625-.671875 2.203125zm18.161621 4.84375h-2.5625v-4.9375q0-1.5625-.171875-2.015625-.15625-.46875-.53125-.71875-.359375-.265625-.875-.265625-.671875 0-1.203125.375-.53125.359375-.734375.96875-.1875.59375-.1875 2.21875v4.375h-2.546875v-9.671875h2.375v1.421875q1.265625-1.640625 3.1875-1.640625.84375 0 1.546875.3125.703125.296875 1.0625.78125.359375.46875.5 1.078125.140625.59375.140625 1.703125zm7.036621-9.671875v2.03125h-1.75v3.90625q0 1.1875.046875 1.390625.046875.1875.21875.3125.1875.125.4375.125.359375 0 1.03125-.25l.21875 2q-.890625.375-2.015625.375-.703125 0-1.265625-.234375-.546875-.234375-.8125-.59375-.25-.375-.34375-1-.09375-.453125-.09375-1.8125v-4.21875h-1.171875v-2.03125h1.171875v-1.921875l2.578125-1.4999981v3.421873h1.75zm3.6813965 2.953125-2.328125-.421875q.40625-1.40625 1.359375-2.078125.953125-.671875 2.84375-.671875 1.703125 0 2.546875.40625.84375.40625 1.171875 1.03125.34375.625.34375 2.28125l-.015625 3q0 1.265625.109375 1.875.125.609375.46875 1.296875h-2.53125q-.109375-.25-.25-.75-.0625-.234375-.09375-.3125-.65625.640625-1.40625.96875-.734375.3125-1.59375.3125-1.484375 0-2.34375-.8125-.859375-.8125-.859375-2.046875 0-.828125.390625-1.46875.390625-.640625 1.09375-.96875.703125-.34375 2.03125-.609375 1.796875-.328125 2.484375-.625v-.25q0-.75-.359375-1.0625-.359375-.3125-1.375-.3125-.6875 0-1.078125.28125-.375.265625-.609375.9375zm3.421875 2.078125q-.484375.15625-1.5625.390625-1.0625.21875-1.390625.4375-.5.359375-.5.90625 0 .53125.40625.9375.40625.390625 1.015625.390625.703125 0 1.328125-.46875.46875-.34375.609375-.84375.09375-.328125.09375-1.25zm5.0476074-6.34375v-2.374998h2.5625v2.374998zm0 10.984375v-9.671875h2.5625v9.671875zm13.980164 0h-2.5625v-4.9375q0-1.5625-.171875-2.015625-.15625-.46875-.53125-.71875-.359375-.265625-.875-.265625-.671875 0-1.203125.375-.53125.359375-.734375.96875-.1875.59375-.1875 2.21875v4.375h-2.546875v-9.671875h2.375v1.421875q1.265625-1.640625 3.1875-1.640625.84375 0 1.546875.3125.703125.296875 1.0625.78125.359375.46875.5 1.078125.140625.59375.140625 1.703125zm8.192871-3.078125 2.546875.421875q-.484375 1.40625-1.546875 2.140625-1.0625.734375-2.65625.734375-2.515625 0-3.734375-1.65625-.953125-1.3125-.953125-3.328125 0-2.40625 1.25-3.765625 1.265625-1.359375 3.1875-1.359375 2.15625 0 3.40625 1.421875 1.25 1.421875 1.1875 4.375h-6.40625q.03125 1.140625.609375 1.78125.59375.625 1.484375.625.59375 0 1-.328125.421875-.328125.625-1.0625zm.15625-2.59375q-.03125-1.109375-.578125-1.6875-.546875-.578125-1.328125-.578125-.84375 0-1.390625.609375-.546875.609375-.53125 1.65625zm7.0788574 5.671875h-2.5625v-9.671875h2.375v1.375q.609375-.984375 1.09375-1.28125.484375-.3125 1.109375-.3125.875 0 1.6875.484375l-.796875 2.234375q-.640625-.421875-1.203125-.421875-.53125 0-.90625.296875-.375.296875-.59375 1.078125-.203125.765625-.203125 3.234375z" fill="#000"/><path d="m288.19028 243.60791c0-8.2453 6.684143-14.929428 14.929443-14.929428h153.88916c3.9595337 0 7.756897 1.5729065 10.556702 4.3727264 2.7998352 2.7998047 4.3727417 6.597168 4.3727417 10.556702v59.715942c0 8.2453-6.684143 14.929443-14.929443 14.929443h-153.88916c-8.2453 0-14.929443-6.684143-14.929443-14.929443z" fill="#d9d2e9" fill-rule="evenodd"/><path d="m288.19028 243.60791c0-8.2453 6.684143-14.929428 14.929443-14.929428h153.88916c3.9595337 0 7.756897 1.5729065 10.556702 4.3727264 2.7998352 2.7998047 4.3727417 6.597168 4.3727417 10.556702v59.715942c0 8.2453-6.684143 14.929443-14.929443 14.929443h-153.88916c-8.2453 0-14.929443-6.684143-14.929443-14.929443z" fill-rule="evenodd" stroke="#000" stroke-linecap="butt" stroke-linejoin="round"/><path d="m331.7275 280.38586v-13.359375h5.046875q1.328125 0 2.03125.125.96875.171875 1.640625.640625.671875.453125 1.078125 1.28125.40625.828125.40625 1.828125 0 1.703125-1.09375 2.890625-1.078125 1.171875-3.921875 1.171875h-3.421875v5.421875zm1.765625-7h3.453125q1.71875 0 2.4375-.640625.71875-.640625.71875-1.796875 0-.84375-.421875-1.4375-.421875-.59375-1.125-.78125-.4375-.125-1.640625-.125h-3.421875zm10.427948 7v-13.359375h1.640625v13.359375zm10.519836 0v-1.421875q-1.125 1.640625-3.0625 1.640625-.859375 0-1.609375-.328125-.734375-.328125-1.09375-.828125-.359375-.5-.5-1.21875-.109375-.46875-.109375-1.53125v-5.984375h1.640625v5.359375q0 1.28125.109375 1.734375.15625.640625.65625 1.015625.5.375 1.234375.375.734375 0 1.375-.375.65625-.390625.921875-1.03125.265625-.65625.265625-1.890625v-5.1875h1.640625v9.671875zm3.735077.796875 1.59375.234375q.109375.75.5625 1.078125.609375.453125 1.671875.453125 1.140625 0 1.75-.453125.625-.453125.84375-1.265625.125-.5.109375-2.109375-1.0625 1.265625-2.671875 1.265625-2 0-3.09375-1.4375-1.09375-1.4375-1.09375-3.453125 0-1.390625.5-2.5625.515625-1.171875 1.453125-1.796875.953125-.640625 2.25-.640625 1.703125 0 2.8125 1.375v-1.15625h1.515625v8.359375q0 2.265625-.46875 3.203125-.453125.9375-1.453125 1.484375-.984375.546875-2.453125.546875-1.71875 0-2.796875-.78125-1.0625-.765625-1.03125-2.34375zm1.359375-5.8125q0 1.90625.75 2.78125.765625.875 1.90625.875 1.125 0 1.890625-.859375.765625-.875.765625-2.734375 0-1.78125-.796875-2.671875-.78125-.90625-1.890625-.90625-1.09375 0-1.859375.890625-.765625.875-.765625 2.625zm9.328857-6.453125v-1.890625h1.640625v1.890625zm0 11.46875v-9.671875h1.640625v9.671875zm4.144806 0v-9.671875h1.46875v1.375q1.0625-1.59375 3.078125-1.59375.875 0 1.609375.3125.734375.3125 1.09375.828125.375.5.515625 1.203125.09375.453125.09375 1.59375v5.953125h-1.640625v-5.890625q0-1-.203125-1.484375-.1875-.5-.671875-.796875-.484375-.296875-1.140625-.296875-1.046875 0-1.8125.671875-.75.65625-.75 2.515625v5.28125zm21.871521-3.546875 1.609375.21875q-.265625 1.65625-1.359375 2.609375-1.078125.9375-2.671875.9375-1.984375 0-3.1875-1.296875-1.203125-1.296875-1.203125-3.71875 0-1.578125.515625-2.75.515625-1.171875 1.578125-1.75 1.0625-.59375 2.3125-.59375 1.578125 0 2.578125.796875 1 .796875 1.28125 2.265625l-1.59375.234375q-.234375-.96875-.8125-1.453125-.578125-.5-1.390625-.5-1.234375 0-2.015625.890625-.78125.890625-.78125 2.8125 0 1.953125.75 2.84375.75.875 1.953125.875.96875 0 1.609375-.59375.65625-.59375.828125-1.828125zm2.96875 3.546875v-13.359375h1.640625v13.359375zm10.504211-1.1875q-.921875.765625-1.765625 1.09375-.828125.3125-1.796875.3125-1.59375 0-2.453125-.78125-.859375-.78125-.859375-1.984375 0-.71875.328125-1.296875.328125-.59375.84375-.9375.53125-.359375 1.1875-.546875.46875-.125 1.453125-.25 1.984375-.234375 2.921875-.5625.015625-.34375.015625-.421875 0-1-.46875-1.421875-.625-.546875-1.875-.546875-1.15625 0-1.703125.40625-.546875.40625-.8125 1.421875l-1.609375-.21875q.21875-1.015625.71875-1.640625.5-.640625 1.453125-.984375.953125-.34375 2.1875-.34375 1.25 0 2.015625.296875.78125.28125 1.140625.734375.375.4375.515625 1.109375.078125.421875.078125 1.515625v2.1875q0 2.28125.109375 2.890625.109375.59375.40625 1.15625h-1.703125q-.265625-.515625-.328125-1.1875zm-.140625-3.671875q-.890625.375-2.671875.625-1.015625.140625-1.4375.328125-.421875.1875-.65625.53125-.21875.34375-.21875.78125 0 .65625.5 1.09375.5.4375 1.453125.4375.9375 0 1.671875-.40625.75-.421875 1.09375-1.140625.265625-.5625.265625-1.640625zm3.547577 1.96875 1.625-.25q.125.96875.75 1.5.625.515625 1.75.515625 1.125 0 1.671875-.453125.546875-.46875.546875-1.09375 0-.546875-.484375-.875-.328125-.21875-1.671875-.546875-1.8125-.46875-2.515625-.796875-.6875-.328125-1.046875-.90625-.359375-.59375-.359375-1.3125 0-.640625.296875-1.1875.296875-.5625.8125-.921875.375-.28125 1.03125-.46875.671875-.203125 1.421875-.203125 1.140625 0 2 .328125.859375.328125 1.265625.890625.421875.5625.578125 1.5l-1.609375.21875q-.109375-.75-.640625-1.171875-.515625-.421875-1.46875-.421875-1.140625 0-1.625.375-.46875.375-.46875.875 0 .3125.1875.578125.203125.265625.640625.4375.234375.09375 1.4375.421875 1.75.453125 2.4375.75.6875.296875 1.078125.859375.390625.5625.390625 1.40625 0 .828125-.484375 1.546875-.46875.71875-1.375 1.125-.90625.390625-2.046875.390625-1.875 0-2.875-.78125-.984375-.78125-1.25-2.328125zm9.328125 0 1.625-.25q.125.96875.75 1.5.625.515625 1.75.515625 1.125 0 1.671875-.453125.546875-.46875.546875-1.09375 0-.546875-.484375-.875-.328125-.21875-1.671875-.546875-1.8125-.46875-2.515625-.796875-.6875-.328125-1.046875-.90625-.359375-.59375-.359375-1.3125 0-.640625.296875-1.1875.296875-.5625.8125-.921875.375-.28125 1.03125-.46875.671875-.203125 1.421875-.203125 1.140625 0 2 .328125.859375.328125 1.265625.890625.421875.5625.578125 1.5l-1.609375.21875q-.109375-.75-.640625-1.171875-.515625-.421875-1.46875-.421875-1.140625 0-1.625.375-.46875.375-.46875.875 0 .3125.1875.578125.203125.265625.640625.4375.234375.09375 1.4375.421875 1.75.453125 2.4375.75.6875.296875 1.078125.859375.390625.5625.390625 1.40625 0 .828125-.484375 1.546875-.46875.71875-1.375 1.125-.90625.390625-2.046875.390625-1.875 0-2.875-.78125-.984375-.78125-1.25-2.328125z" fill="#000"/><path d="m12.934383 242.45801h192.91338v62.015747h-192.91338z" fill="#d9ead3" fill-rule="evenodd"/><path d="m12.934383 242.45801h192.91338v62.015747h-192.91338z" fill-rule="evenodd" stroke="#000" stroke-linecap="butt" stroke-linejoin="round"/><path d="m27.146023 280.38586v-9.671875h1.46875v1.375q1.0625-1.59375 3.078125-1.59375.875 0 1.609375.3125.734375.3125 1.09375.828125.375.5.515625 1.203125.09375.453125.09375 1.59375v5.953125h-1.640625v-5.890625q0-1-.203125-1.484375-.1875-.5-.671875-.796875-.484375-.296875-1.140625-.296875-1.046875 0-1.8125.671875-.75.65625-.75 2.515625v5.28125zm17.000717-3.109375 1.6875.203125q-.40625 1.484375-1.484375 2.3125-1.078125.8125-2.765625.8125-2.125 0-3.375-1.296875-1.234375-1.3125-1.234375-3.671875 0-2.453125 1.25-3.796875 1.265625-1.34375 3.265625-1.34375 1.9375 0 3.15625 1.328125 1.234375 1.3125 1.234375 3.703125 0 .15625 0 .4375h-7.21875q.09375 1.59375.90625 2.453125.8125.84375 2.015625.84375.90625 0 1.546875-.46875.640625-.484375 1.015625-1.515625zm-5.390625-2.65625h5.40625q-.109375-1.21875-.625-1.828125-.78125-.953125-2.03125-.953125-1.125 0-1.90625.765625-.765625.75-.84375 2.015625zm8.047592 5.765625 3.53125-5.03125-3.265625-4.640625h2.046875l1.484375 2.265625q.421875.640625.671875 1.078125.40625-.59375.734375-1.0625l1.640625-2.28125h1.953125l-3.34375 4.546875 3.59375 5.125h-2.015625l-1.984375-3-.515625-.8125-2.546875 3.8125zm16.734375-3.546875 1.6093712.21875q-.265625 1.65625-1.3593712 2.609375-1.078125.9375-2.671875.9375-1.984375 0-3.1875-1.296875-1.203125-1.296875-1.203125-3.71875 0-1.578125.515625-2.75.515625-1.171875 1.578125-1.75 1.0625-.59375 2.3125-.59375 1.578125 0 2.578125.796875.9999962.796875 1.2812462 2.265625l-1.5937462.234375q-.234375-.96875-.8125-1.453125-.578125-.5-1.390625-.5-1.234375 0-2.015625.890625-.78125.890625-.78125 2.8125 0 1.953125.75 2.84375.75.875 1.953125.875.96875 0 1.609375-.59375.65625-.59375.828125-1.828125zm9.640621.4375 1.6875.203125q-.40625 1.484375-1.484375 2.3125-1.078125.8125-2.765625.8125-2.125 0-3.375-1.296875-1.234375-1.3125-1.234375-3.671875 0-2.453125 1.25-3.796875 1.265625-1.34375 3.265625-1.34375 1.9375 0 3.15625 1.328125 1.234375 1.3125 1.234375 3.703125 0 .15625 0 .4375h-7.21875q.09375 1.59375.90625 2.453125.8125.84375 2.015625.84375.90625 0 1.546875-.46875.640625-.484375 1.015625-1.515625zm-5.390625-2.65625h5.40625q-.109375-1.21875-.625-1.828125-.78125-.953125-2.03125-.953125-1.125 0-1.90625.765625-.765625.75-.84375 2.015625zm8.485092 2.875 1.625-.25q.125.96875.75 1.5.625.515625 1.75.515625 1.125 0 1.671875-.453125.546875-.46875.546875-1.09375 0-.546875-.484375-.875-.328125-.21875-1.671875-.546875-1.8125-.46875-2.515625-.796875-.6875-.328125-1.046875-.90625-.359375-.59375-.359375-1.3125 0-.640625.296875-1.1875.296875-.5625.8125-.921875.375-.28125 1.03125-.46875.671875-.203125 1.421875-.203125 1.140625 0 2 .328125.859375.328125 1.265625.890625.421875.5625.578125 1.5l-1.609375.21875q-.109375-.75-.640625-1.171875-.515625-.421875-1.46875-.421875-1.140625 0-1.625.375-.46875.375-.46875.875 0 .3125.1875.578125.203125.265625.640625.4375.234375.09375 1.4375.421875 1.75.453125 2.4375.75.6875.296875 1.078125.859375.390625.5625.390625 1.40625 0 .828125-.484375 1.546875-.46875.71875-1.375 1.125-.90625.390625-2.046875.390625-1.875 0-2.875-.78125-.984375-.78125-1.25-2.328125zm9.328125 0 1.625-.25q.125.96875.75 1.5.625.515625 1.75.515625 1.125 0 1.671875-.453125.546875-.46875.546875-1.09375 0-.546875-.484375-.875-.328125-.21875-1.671875-.546875-1.8125-.46875-2.515625-.796875-.6875-.328125-1.046875-.90625-.359375-.59375-.359375-1.3125 0-.640625.296875-1.1875.296875-.5625.8125-.921875.375-.28125 1.03125-.46875.671875-.203125 1.421875-.203125 1.140625 0 2 .328125.859375.328125 1.265625.890625.421875.5625.578125 1.5l-1.609375.21875q-.109375-.75-.640625-1.171875-.515625-.421875-1.46875-.421875-1.140625 0-1.625.375-.46875.375-.46875.875 0 .3125.1875.578125.203125.265625.640625.4375.234375.09375 1.4375.421875 1.75.453125 2.4375.75.6875.296875 1.078125.859375.390625.5625.390625 1.40625 0 .828125-.484375 1.546875-.46875.71875-1.375 1.125-.90625.390625-2.046875.390625-1.875 0-2.875-.78125-.984375-.78125-1.25-2.328125zm9.34375-1.125v-1.640625h5.03125v1.640625zm6.853302 4.015625v-9.671875h1.46875v1.359375q.453125-.71875 1.203125-1.140625.765625-.4375 1.71875-.4375 1.078125 0 1.765625.453125.6875.4375.96875 1.234375 1.15625-1.6875 2.984375-1.6875 1.453125 0 2.21875.796875.78125.796875.78125 2.453125v6.640625h-1.640625v-6.09375q0-.984375-.15625-1.40625-.15625-.4375-.578125-.703125-.421875-.265625-.984375-.265625-1.015625 0-1.6875.6875-.671875.671875-.671875 2.15625v5.625h-1.640625v-6.28125q0-1.09375-.40625-1.640625-.40625-.546875-1.3125-.546875-.6875 0-1.28125.359375-.59375.359375-.859375 1.0625-.25.703125-.25 2.03125v5.015625zm21.853302-1.1875q-.921875.765625-1.765625 1.09375-.828125.3125-1.796875.3125-1.59375 0-2.453125-.78125-.859375-.78125-.859375-1.984375 0-.71875.328125-1.296875.328125-.59375.84375-.9375.53125-.359375 1.1875-.546875.46875-.125 1.453125-.25 1.984375-.234375 2.921875-.5625.015625-.34375.015625-.421875 0-1-.46875-1.421875-.625-.546875-1.875-.546875-1.15625 0-1.703125.40625-.546875.40625-.8125 1.421875l-1.609375-.21875q.21875-1.015625.71875-1.640625.5-.640625 1.453125-.984375.953125-.34375 2.1875-.34375 1.25 0 2.015625.296875.78125.28125 1.140625.734375.375.4375.515625 1.109375.078125.421875.078125 1.515625v2.1875q0 2.28125.109375 2.890625.109375.59375.40625 1.15625h-1.703125q-.265625-.515625-.328125-1.1875zm-.140625-3.671875q-.890625.375-2.671875.625-1.015625.140625-1.4375.328125-.421875.1875-.65625.53125-.21875.34375-.21875.78125 0 .65625.5 1.09375.5.4375 1.453125.4375.9375 0 1.671875-.40625.75-.421875 1.09375-1.140625.265625-.5625.265625-1.640625zm4.203842 8.5625v-13.375h1.4843826v1.25q.53125-.734375 1.1875-1.09375.671875-.375 1.625-.375 1.234375 0 2.171875.640625.953125.625 1.4375 1.796875.484375 1.15625.484375 2.546875 0 1.484375-.53125 2.671875-.53125 1.1875-1.546875 1.828125-1.015625.625-2.140625.625-.8125 0-1.46875-.34375-.65625-.34375-1.0625-.875v4.703125zm1.4843826-8.484375q0 1.859375.75 2.765625.765625.890625 1.828125.890625 1.09375 0 1.875-.921875.78125-.9375.78125-2.875 0-1.84375-.765625-2.765625-.75-.921875-1.8125-.921875-1.046875 0-1.859375.984375-.796875.96875-.796875 2.84375zm8.891342 8.484375v-13.375h1.484375v1.25q.53125-.734375 1.1875-1.09375.671875-.375 1.625-.375 1.234375 0 2.171875.640625.953125.625 1.4375 1.796875.484375 1.15625.484375 2.546875 0 1.484375-.53125 2.671875-.53125 1.1875-1.546875 1.828125-1.015625.625-2.140625.625-.8125 0-1.46875-.34375-.65625-.34375-1.0625-.875v4.703125zm1.484375-8.484375q0 1.859375.75 2.765625.765625.890625 1.828125.890625 1.09375 0 1.875-.921875.78125-.9375.78125-2.875 0-1.84375-.765625-2.765625-.75-.921875-1.8125-.921875-1.046875 0-1.859375.984375-.796875.96875-.796875 2.84375zm8.235092 1.890625 1.625-.25q.125.96875.75 1.5.625.515625 1.75.515625 1.125 0 1.671875-.453125.546875-.46875.546875-1.09375 0-.546875-.484375-.875-.328125-.21875-1.671875-.546875-1.8125-.46875-2.515625-.796875-.6875-.328125-1.046875-.90625-.359375-.59375-.359375-1.3125 0-.640625.296875-1.1875.296875-.5625.8125-.921875.375-.28125 1.03125-.46875.671875-.203125 1.421875-.203125 1.140625 0 2 .328125.859375.328125 1.265625.890625.421875.5625.578125 1.5l-1.609375.21875q-.109375-.75-.640625-1.171875-.515625-.421875-1.46875-.421875-1.140625 0-1.625.375-.46875.375-.46875.875 0 .3125.1875.578125.203125.265625.640625.4375.234375.09375 1.4375.421875 1.75.453125 2.4375.75.6875.296875 1.078125.859375.390625.5625.390625 1.40625 0 .828125-.484375 1.546875-.46875.71875-1.375 1.125-.90625.390625-2.046875.390625-1.875 0-2.875-.78125-.984375-.78125-1.25-2.328125zm10.4375 2.890625v-1.875h1.875v1.875zm4.730179 3.703125v-13.375h1.484375v1.25q.53125-.734375 1.1875-1.09375.671875-.375 1.625-.375 1.234375 0 2.171875.640625.953125.625 1.4375 1.796875.484375 1.15625.484375 2.546875 0 1.484375-.53125 2.671875-.53125 1.1875-1.546875 1.828125-1.015625.625-2.140625.625-.8125 0-1.46875-.34375-.65625-.34375-1.0625-.875v4.703125zm1.484375-8.484375q0 1.859375.75 2.765625.765625.890625 1.828125.890625 1.09375 0 1.875-.921875.78125-.9375.78125-2.875 0-1.84375-.765625-2.765625-.75-.921875-1.8125-.921875-1.046875 0-1.859375.984375-.796875.96875-.796875 2.84375zm8.891342 4.78125v-13.359375h1.640625v4.796875q1.140625-1.328125 2.890625-1.328125 1.078125 0 1.859375.421875.796875.421875 1.140625 1.171875.34375.75.34375 2.171875v6.125h-1.640625v-6.125q0-1.234375-.53125-1.796875-.53125-.5625-1.515625-.5625-.71875 0-1.359375.390625-.640625.375-.921875 1.015625-.265625.640625-.265625 1.78125v5.296875zm10.375717 3.703125v-13.375h1.484375v1.25q.53125-.734375 1.1875-1.09375.671875-.375 1.625-.375 1.234375 0 2.171875.640625.953125.625 1.4375 1.796875.484375 1.15625.484375 2.546875 0 1.484375-.53125 2.671875-.53125 1.1875-1.546875 1.828125-1.015625.625-2.140625.625-.8125 0-1.46875-.34375-.65625-.34375-1.0625-.875v4.703125zm1.484375-8.484375q0 1.859375.75 2.765625.765625.890625 1.828125.890625 1.09375 0 1.875-.921875.78125-.9375.78125-2.875 0-1.84375-.765625-2.765625-.75-.921875-1.8125-.921875-1.046875 0-1.859375.984375-.796875.96875-.796875 2.84375z" fill="#000"/><path d="m12.934383 134.43964h192.91338v62.015747h-192.91338z" fill="#f4cccc" fill-rule="evenodd"/><path d="m12.934383 134.43964h192.91338v62.015747h-192.91338z" fill-rule="evenodd" stroke="#000" stroke-linecap="butt" stroke-linejoin="round"/><path d="m28.253025 172.36751-3.6875-9.671875h1.734375l2.078125 5.796875q.328125.9375.625 1.9375.203125-.765625.609375-1.828125l2.140625-5.90625h1.6875l-3.65625 9.671875zm13.265625-3.109375 1.6875.203125q-.40625 1.484375-1.484375 2.3125-1.078125.8125-2.765625.8125-2.125 0-3.375-1.296875-1.234375-1.3125-1.234375-3.671875 0-2.453125 1.25-3.796875 1.265625-1.34375 3.265625-1.34375 1.9375 0 3.15625 1.328125 1.234375 1.3125 1.234375 3.703125 0 .15625 0 .4375h-7.21875q.09375 1.59375.90625 2.453125.8125.84375 2.015625.84375.90625 0 1.546875-.46875.640625-.484375 1.015625-1.515625zm-5.390625-2.65625h5.40625q-.109375-1.21875-.625-1.828125-.78125-.953125-2.03125-.953125-1.125 0-1.90625.765625-.765625.75-.84375 2.015625zm9.141342 5.765625v-9.671875h1.46875v1.375q1.0625-1.59375 3.078125-1.59375.875 0 1.609375.3125.734375.3125 1.09375.828125.375.5.515625 1.203125.09375.453125.09375 1.59375v5.953125h-1.640625v-5.890625q0-1-.203125-1.484375-.1875-.5-.671875-.796875-.484375-.296875-1.140625-.296875-1.046875 0-1.8125.671875-.75.65625-.75 2.515625v5.28125zm16.641342 0v-1.21875q-.90625 1.4375-2.703125 1.4375-1.15625 0-2.125-.640625-.96875-.640625-1.5-1.78125-.53125-1.140625-.53125-2.625 0-1.453125.484375-2.625.484375-1.1875 1.4375-1.8125.96875-.625 2.171875-.625.875 0 1.546875.375.6875.359375 1.109375.953125v-4.796875h1.640625v13.359375zm-5.171875-4.828125q0 1.859375.78125 2.78125.78125.921875 1.84375.921875 1.078125 0 1.828125-.875.75-.890625.75-2.6875 0-1.984375-.765625-2.90625-.765625-.9375-1.890625-.9375-1.078125 0-1.8125.890625-.734375.890625-.734375 2.8125zm8.672588-.015625q0-2.6875 1.484375-3.96875 1.25-1.078125 3.046875-1.078125 2 0 3.265625 1.3125 1.265625 1.296875 1.265625 3.609375 0 1.859375-.5625 2.9375-.5625 1.0625-1.640625 1.65625-1.0625.59375-2.328125.59375-2.03125 0-3.28125-1.296875-1.25-1.3125-1.25-3.765625zm1.6875 0q0 1.859375.796875 2.796875.8125.921875 2.046875.921875 1.21875 0 2.03125-.921875.8125-.9375.8125-2.84375 0-1.796875-.8125-2.71875-.8125-.921875-2.03125-.921875-1.234375 0-2.046875.921875-.796875.90625-.796875 2.765625zm9.281967 4.84375v-9.671875h1.46875v1.46875q.5625-1.03125 1.03125-1.359375.484375-.328125 1.0625-.328125.828125 0 1.6875.53125l-.5625 1.515625q-.609375-.359375-1.203125-.359375-.546875 0-.96875.328125-.421875.328125-.609375.890625-.28125.875-.28125 1.921875v5.0625zm4.993927.234375 3.875-13.8125h1.3125l-3.859375 13.8125zm12.730179-1.421875q-.921875.765625-1.765625 1.09375-.828125.3125-1.796875.3125-1.59375 0-2.453125-.78125-.859375-.78125-.859375-1.984375 0-.71875.328125-1.296875.328125-.59375.84375-.9375.53125-.359375 1.1875-.546875.46875-.125 1.453125-.25 1.984375-.234375 2.921875-.5625.015625-.34375.015625-.421875 0-1-.46875-1.421875-.625-.546875-1.875-.546875-1.15625 0-1.703125.40625-.546875.40625-.8125 1.421875l-1.609375-.21875q.21875-1.015625.71875-1.640625.5-.640625 1.453125-.984375.953125-.34375 2.1875-.34375 1.25 0 2.015625.296875.78125.28125 1.140625.734375.375.4375.515625 1.109375.078125.421875.078125 1.515625v2.1875q0 2.28125.109375 2.890625.109375.59375.40625 1.15625h-1.703125q-.265625-.515625-.328125-1.1875zm-.140625-3.671875q-.890625.375-2.671875.625-1.015625.140625-1.4375.328125-.421875.1875-.65625.53125-.21875.34375-.21875.78125 0 .65625.5 1.09375.5.4375 1.453125.4375.9375 0 1.671875-.40625.75-.421875 1.09375-1.140625.265625-.5625.265625-1.640625zm10.531967 4.859375v-1.421875q-1.125 1.640625-3.0625 1.640625-.859375 0-1.609375-.328125-.734375-.328125-1.09375-.828125-.359375-.5-.5-1.21875-.109375-.46875-.109375-1.53125v-5.984375h1.640625v5.359375q0 1.28125.109375 1.734375.15625.640625.65625 1.015625.5.375 1.234375.375.734375 0 1.375-.375.65625-.390625.921875-1.03125.265625-.65625.265625-1.890625v-5.1875h1.640625v9.671875zm7.625717-1.46875.234375 1.453125q-.6875.140625-1.234375.140625-.890625 0-1.390625-.28125-.484375-.28125-.6875-.734375-.203125-.46875-.203125-1.9375v-5.578125h-1.203125v-1.265625h1.203125v-2.390625l1.625-.984375v3.375h1.65625v1.265625h-1.65625v5.671875q0 .6875.078125.890625.09375.203125.28125.328125.203125.109375.578125.109375.265625 0 .71875-.0625zm.99580383-3.375q0-2.6875 1.484375-3.96875 1.25-1.078125 3.046875-1.078125 2 0 3.265625 1.3125 1.265625 1.296875 1.265625 3.609375 0 1.859375-.5625 2.9375-.5625 1.0625-1.640625 1.65625-1.0625.59375-2.328125.59375-2.03125 0-3.28125-1.296875-1.25-1.3125-1.25-3.765625zm1.6875 0q0 1.859375.796875 2.796875.8125.921875 2.046875.921875 1.21875 0 2.03125-.921875.8125-.9375.8125-2.84375 0-1.796875-.8125-2.71875-.8125-.921875-2.03125-.921875-1.234375 0-2.046875.921875-.796875.90625-.796875 2.765625zm9.250717 4.84375v-13.359375h1.640625v13.359375zm3.5823212-4.84375q0-2.6875 1.484375-3.96875 1.25-1.078125 3.046875-1.078125 2 0 3.265625 1.3125 1.265625 1.296875 1.265625 3.609375 0 1.859375-.5625 2.9375-.5625 1.0625-1.640625 1.65625-1.0625.59375-2.328125.59375-2.03125 0-3.28125-1.296875-1.25-1.3125-1.25-3.765625zm1.6875 0q0 1.859375.796875 2.796875.8125.921875 2.046875.921875 1.21875 0 2.03125-.921875.8125-.9375.8125-2.84375 0-1.796875-.8125-2.71875-.8125-.921875-2.03125-.921875-1.234375 0-2.046875.921875-.796875.90625-.796875 2.765625zm15.610107 3.65625q-.921875.765625-1.765625 1.09375-.828125.3125-1.796875.3125-1.5937653 0-2.4531403-.78125-.859375-.78125-.859375-1.984375 0-.71875.328125-1.296875.328125-.59375.84375-.9375.53125-.359375 1.1875-.546875.46875-.125 1.4531403-.25 1.984375-.234375 2.921875-.5625.015625-.34375.015625-.421875 0-1-.46875-1.421875-.625-.546875-1.875-.546875-1.15625 0-1.7031403.40625-.546875.40625-.8125 1.421875l-1.609375-.21875q.21875-1.015625.71875-1.640625.5-.640625 1.453125-.984375.95314026-.34375 2.1875153-.34375 1.25 0 2.015625.296875.78125.28125 1.140625.734375.375.4375.515625 1.109375.078125.421875.078125 1.515625v2.1875q0 2.28125.109375 2.890625.109375.59375.40625 1.15625h-1.703125q-.265625-.515625-.328125-1.1875zm-.140625-3.671875q-.890625.375-2.671875.625-1.015625.140625-1.4375153.328125-.421875.1875-.65625.53125-.21875.34375-.21875.78125 0 .65625.5 1.09375.5.4375 1.4531403.4375.9375 0 1.671875-.40625.75-.421875 1.09375-1.140625.265625-.5625.265625-1.640625zm10.469452 4.859375v-1.21875q-.90625 1.4375-2.703125 1.4375-1.15625 0-2.125-.640625-.96875-.640625-1.5-1.78125-.53125-1.140625-.53125-2.625 0-1.453125.484375-2.625.484375-1.1875 1.4375-1.8125.96875-.625 2.171875-.625.875 0 1.546875.375.6875.359375 1.109375.953125v-4.796875h1.640625v13.359375zm-5.171875-4.828125q0 1.859375.78125 2.78125.78125.921875 1.84375.921875 1.078125 0 1.828125-.875.75-.890625.75-2.6875 0-1.984375-.765625-2.90625-.765625-.9375-1.890625-.9375-1.078125 0-1.8125.890625-.734375.890625-.734375 2.8125zm9.735107 4.828125v-1.875h1.875v1.875zm4.7301636 3.703125v-13.375h1.484375v1.25q.53125-.734375 1.1875-1.09375.671875-.375 1.625-.375 1.234375 0 2.171875.640625.953125.625 1.4375 1.796875.484375 1.15625.484375 2.546875 0 1.484375-.53125 2.671875-.53125 1.1875-1.546875 1.828125-1.015625.625-2.140625.625-.8125 0-1.46875-.34375-.65625-.34375-1.0625-.875v4.703125zm1.484375-8.484375q0 1.859375.75 2.765625.765625.890625 1.828125.890625 1.09375 0 1.875-.921875.78125-.9375.78125-2.875 0-1.84375-.765625-2.765625-.75-.921875-1.8125-.921875-1.046875 0-1.859375.984375-.796875.96875-.796875 2.84375zm8.891357 4.78125v-13.359375h1.640625v4.796875q1.140625-1.328125 2.890625-1.328125 1.078125 0 1.859375.421875.796875.421875 1.140625 1.171875.34375.75.34375 2.171875v6.125h-1.640625v-6.125q0-1.234375-.53125-1.796875-.53125-.5625-1.515625-.5625-.71875 0-1.359375.390625-.640625.375-.921875 1.015625-.265625.640625-.265625 1.78125v5.296875zm10.375702 3.703125v-13.375h1.484375v1.25q.53125-.734375 1.1875-1.09375.671875-.375 1.625-.375 1.234375 0 2.171875.640625.953125.625 1.4375 1.796875.484375 1.15625.484375 2.546875 0 1.484375-.53125 2.671875-.53125 1.1875-1.546875 1.828125-1.015625.625-2.140625.625-.8125 0-1.46875-.34375-.65625-.34375-1.0625-.875v4.703125zm1.484375-8.484375q0 1.859375.75 2.765625.765625.890625 1.828125.890625 1.09375 0 1.875-.921875.78125-.9375.78125-2.875 0-1.84375-.765625-2.765625-.75-.921875-1.8125-.921875-1.046875 0-1.859375.984375-.796875.96875-.796875 2.84375z" fill="#000"/><path d="m554.28345 94.40318c0-8.245293 6.684143-14.929428 14.929443-14.929428h144.69232c3.9595337 0 7.756897 1.5729141 10.556702 4.3727264 2.7998047 2.7998123 4.3727417 6.5971756 4.3727417 10.556702v59.715942c0 8.2453-6.684143 14.929428-14.929443 14.929428h-144.69232c-8.2453 0-14.929443-6.684128-14.929443-14.929428z" fill="#cfe2f3" fill-rule="evenodd"/><path d="m554.28345 94.40318c0-8.245293 6.684143-14.929428 14.929443-14.929428h144.69232c3.9595337 0 7.756897 1.5729141 10.556702 4.3727264 2.7998047 2.7998123 4.3727417 6.5971756 4.3727417 10.556702v59.715942c0 8.2453-6.684143 14.929428-14.929443 14.929428h-144.69232c-8.2453 0-14.929443-6.684128-14.929443-14.929428z" fill-rule="evenodd" stroke="#000" stroke-linecap="butt" stroke-linejoin="round"/><path d="m594.5485 131.18115v-13.359375h1.765625v13.359375zm4.6832886 0v-9.671875h1.46875v1.375q1.0625-1.59375 3.078125-1.59375.875 0 1.609375.3125.734375.3125 1.09375.828125.375.5.515625 1.203125.09375.453125.09375 1.59375v5.953125h-1.640625v-5.890625q0-1-.203125-1.484375-.1875-.5-.671875-.796875-.484375-.296875-1.140625-.296875-1.046875 0-1.8125.671875-.75.65625-.75 2.515625v5.28125zm13.953857-1.46875.234375 1.453125q-.6875.140625-1.234375.140625-.890625 0-1.390625-.28125-.484375-.28125-.6875-.734375-.203125-.46875-.203125-1.9375v-5.578125h-1.203125v-1.265625h1.203125v-2.390625l1.625-.984375v3.375h1.65625v1.265625h-1.65625v5.671875q0 .6875.078125.890625.09375.203125.28125.328125.203125.109375.578125.109375.265625 0 .71875-.0625zm8.230164-1.640625 1.6875.203125q-.40625 1.484375-1.484375 2.3125-1.078125.8125-2.765625.8125-2.125 0-3.375-1.296875-1.234375-1.3125-1.234375-3.671875 0-2.453125 1.25-3.796875 1.265625-1.34375 3.265625-1.34375 1.9375 0 3.15625 1.328125 1.234375 1.3125 1.234375 3.703125 0 .15625 0 .4375h-7.21875q.09375 1.59375.90625 2.453125.8125.84375 2.015625.84375.90625 0 1.546875-.46875.640625-.484375 1.015625-1.515625zm-5.390625-2.65625h5.40625q-.109375-1.21875-.625-1.828125-.78125-.953125-2.03125-.953125-1.125 0-1.90625.765625-.765625.75-.84375 2.015625zm8.828857 6.5625 1.59375.234375q.109375.75.5625 1.078125.609375.453125 1.671875.453125 1.140625 0 1.75-.453125.625-.453125.84375-1.265625.125-.5.109375-2.109375-1.0625 1.265625-2.671875 1.265625-2 0-3.09375-1.4375-1.09375-1.4375-1.09375-3.453125 0-1.390625.5-2.5625.515625-1.171875 1.453125-1.796875.953125-.640625 2.25-.640625 1.703125 0 2.8125 1.375v-1.15625h1.515625v8.359375q0 2.265625-.46875 3.203125-.453125.9375-1.453125 1.484375-.984375.546875-2.453125.546875-1.71875 0-2.796875-.78125-1.0625-.765625-1.03125-2.34375zm1.359375-5.8125q0 1.90625.75 2.78125.765625.875 1.90625.875 1.125 0 1.890625-.859375.765625-.875.765625-2.734375 0-1.78125-.796875-2.671875-.78125-.90625-1.890625-.90625-1.09375 0-1.859375.890625-.765625.875-.765625 2.625zm9.313232 5.015625v-9.671875h1.46875v1.46875q.5625-1.03125 1.03125-1.359375.484375-.328125 1.0625-.328125.828125 0 1.6875.53125l-.5625 1.515625q-.609375-.359375-1.203125-.359375-.546875 0-.96875.328125-.421875.328125-.609375.890625-.28125.875-.28125 1.921875v5.0625zm12.5407715-1.1875q-.921875.765625-1.765625 1.09375-.828125.3125-1.796875.3125-1.59375 0-2.453125-.78125-.859375-.78125-.859375-1.984375 0-.71875.328125-1.296875.328125-.59375.84375-.9375.53125-.359375 1.1875-.546875.46875-.125 1.453125-.25 1.984375-.234375 2.921875-.5625.015625-.34375.015625-.421875 0-1-.46875-1.421875-.625-.546875-1.875-.546875-1.15625 0-1.703125.40625-.546875.40625-.8125 1.421875l-1.609375-.21875q.21875-1.015625.71875-1.640625.5-.640625 1.453125-.984375.953125-.34375 2.1875-.34375 1.25 0 2.015625.296875.78125.28125 1.140625.734375.375.4375.515625 1.109375.078125.421875.078125 1.515625v2.1875q0 2.28125.109375 2.890625.109375.59375.40625 1.15625h-1.703125q-.265625-.515625-.328125-1.1875zm-.140625-3.671875q-.890625.375-2.671875.625-1.015625.140625-1.4375.328125-.421875.1875-.65625.53125-.21875.34375-.21875.78125 0 .65625.5 1.09375.5.4375 1.453125.4375.9375 0 1.671875-.40625.75-.421875 1.09375-1.140625.265625-.5625.265625-1.640625zm7.7819824 3.390625.234375 1.453125q-.6875.140625-1.234375.140625-.890625 0-1.390625-.28125-.484375-.28125-.6875-.734375-.203125-.46875-.203125-1.9375v-5.578125h-1.203125v-1.265625h1.203125v-2.390625l1.625-.984375v3.375h1.65625v1.265625h-1.65625v5.671875q0 .6875.078125.890625.09375.203125.28125.328125.203125.109375.578125.109375.265625 0 .71875-.0625zm1.6051636-10v-1.890625h1.640625v1.890625zm0 11.46875v-9.671875h1.640625v9.671875zm3.5354614-4.84375q0-2.6875 1.484375-3.96875 1.25-1.078125 3.046875-1.078125 2 0 3.265625 1.3125 1.265625 1.296875 1.265625 3.609375 0 1.859375-.5625 2.9375-.5625 1.0625-1.640625 1.65625-1.0625.59375-2.328125.59375-2.03125 0-3.28125-1.296875-1.25-1.3125-1.25-3.765625zm1.6875 0q0 1.859375.796875 2.796875.8125.921875 2.046875.921875 1.21875 0 2.03125-.921875.8125-.9375.8125-2.84375 0-1.796875-.8125-2.71875-.8125-.921875-2.03125-.921875-1.234375 0-2.046875.921875-.796875.90625-.796875 2.765625zm9.297607 4.84375v-9.671875h1.46875v1.375q1.0625-1.59375 3.078125-1.59375.875 0 1.609375.3125.734375.3125 1.09375.828125.375.5.515625 1.203125.09375.453125.09375 1.59375v5.953125h-1.640625v-5.890625q0-1-.203125-1.484375-.1875-.5-.671875-.796875-.484375-.296875-1.140625-.296875-1.046875 0-1.8125.671875-.75.65625-.75 2.515625v5.28125zm9.719421-2.890625 1.625-.25q.125.96875.75 1.5.625.515625 1.75.515625 1.125 0 1.671875-.453125.546875-.46875.546875-1.09375 0-.546875-.484375-.875-.328125-.21875-1.671875-.546875-1.8125-.46875-2.515625-.796875-.6875-.328125-1.046875-.90625-.359375-.59375-.359375-1.3125 0-.640625.296875-1.1875.296875-.5625.8125-.921875.375-.28125 1.03125-.46875.671875-.203125 1.421875-.203125 1.140625 0 2 .328125.859375.328125 1.265625.890625.421875.5625.578125 1.5l-1.609375.21875q-.109375-.75-.640625-1.171875-.515625-.421875-1.46875-.421875-1.140625 0-1.625.375-.46875.375-.46875.875 0 .3125.1875.578125.203125.265625.640625.4375.234375.09375 1.4375.421875 1.75.453125 2.4375.75.6875.296875 1.078125.859375.390625.5625.390625 1.40625 0 .828125-.484375 1.546875-.46875.71875-1.375 1.125-.90625.390625-2.046875.390625-1.875 0-2.875-.78125-.984375-.78125-1.25-2.328125z" fill="#000"/><path d="m554.28345 243.60791c0-8.2453 6.684143-14.929428 14.929443-14.929428h144.69232c3.9595337 0 7.756897 1.5729065 10.556702 4.3727264 2.7998047 2.7998047 4.3727417 6.597168 4.3727417 10.556702v59.715942c0 8.2453-6.684143 14.929443-14.929443 14.929443h-144.69232c-8.2453 0-14.929443-6.684143-14.929443-14.929443z" fill="#cfe2f3" fill-rule="evenodd"/><path d="m554.28345 243.60791c0-8.2453 6.684143-14.929428 14.929443-14.929428h144.69232c3.9595337 0 7.756897 1.5729065 10.556702 4.3727264 2.7998047 2.7998047 4.3727417 6.597168 4.3727417 10.556702v59.715942c0 8.2453-6.684143 14.929443-14.929443 14.929443h-144.69232c-8.2453 0-14.929443-6.684143-14.929443-14.929443z" fill-rule="evenodd" stroke="#000" stroke-linecap="butt" stroke-linejoin="round"/><path d="m582.2619 265.089 1.65625-.140625q.125 1 .546875 1.640625.4375.640625 1.34375 1.046875.921875.390625 2.0625.390625 1 0 1.78125-.296875.78125-.296875 1.15625-.8125.375-.53125.375-1.15625 0-.625-.375-1.09375-.359375-.46875-1.1875-.796875-.546875-.203125-2.390625-.640625-1.828125-.453125-2.5625-.84375-.96875-.5-1.4375-1.234375-.46875-.75-.46875-1.671875 0-1 .578125-1.875.578125-.890625 1.671875-1.34375 1.109375-.45310974 2.453125-.45310974 1.484375 0 2.609375.48435974 1.140625.46875 1.75 1.40625.609375.921875.65625 2.09375l-1.6875.125q-.140625-1.265625-.9375-1.90625-.78125-.65625-2.3125-.65625-1.609375 0-2.34375.59375-.734375.59375-.734375 1.421875 0 .71875.53125 1.171875.5.46875 2.65625.96875 2.15625.484375 2.953125.84375 1.171875.53125 1.71875 1.359375.5625.828125.5625 1.90625 0 1.0625-.609375 2.015625-.609375.9375-1.75 1.46875-1.140625.515625-2.578125.515625-1.8125 0-3.046875-.53125-1.21875-.53125-1.921875-1.59375-.6875-1.0625-.71875-2.40625zm19.459229 1.1875 1.6875.203125q-.40625 1.484375-1.484375 2.3125-1.078125.8125-2.765625.8125-2.125 0-3.375-1.296875-1.234375-1.3125-1.234375-3.671875 0-2.453125 1.25-3.796875 1.265625-1.34375 3.265625-1.34375 1.9375 0 3.15625 1.328125 1.234375 1.3125 1.234375 3.703125 0 .15625 0 .4375h-7.21875q.09375 1.59375.90625 2.453125.8125.84375 2.015625.84375.90625 0 1.546875-.46875.640625-.484375 1.015625-1.515625zm-5.390625-2.65625h5.40625q-.109375-1.21875-.625-1.828125-.78125-.953125-2.03125-.953125-1.125 0-1.90625.765625-.765625.75-.84375 2.015625zm12.719421 4.296875.234375 1.453125q-.6875.140625-1.234375.140625-.890625 0-1.390625-.28125-.484375-.28125-.6875-.734375-.203125-.46875-.203125-1.9375v-5.578125h-1.203125v-1.265625h1.203125v-2.390625l1.625-.984375v3.375h1.65625v1.265625h-1.65625v5.671875q0 .6875.078125.890625.09375.203125.28125.328125.203125.109375.578125.109375.265625 0 .71875-.0625zm5.1833496 0 .234375 1.453125q-.6875.140625-1.234375.140625-.890625 0-1.390625-.28125-.484375-.28125-.6875-.734375-.203125-.46875-.203125-1.9375v-5.578125h-1.203125v-1.265625h1.203125v-2.390625l1.625-.984375v3.375h1.65625v1.265625h-1.65625v5.671875q0 .6875.078125.890625.09375.203125.28125.328125.203125.109375.578125.109375.265625 0 .71875-.0625zm1.6051636-10v-1.890625h1.640625v1.890625zm0 11.46875v-9.671875h1.640625v9.671875zm4.1448364 0v-9.671875h1.46875v1.375q1.0625-1.59375 3.078125-1.59375.875 0 1.609375.3125.734375.3125 1.09375.828125.375.5.515625 1.203125.09375.453125.09375 1.59375v5.953125h-1.640625v-5.890625q0-1-.203125-1.484375-.1875-.5-.671875-.796875-.484375-.296875-1.140625-.296875-1.046875 0-1.8125.671875-.75.65625-.75 2.515625v5.28125zm10.063171.796875 1.59375.234375q.109375.75.5625 1.078125.609375.453125 1.671875.453125 1.140625 0 1.75-.453125.625-.453125.84375-1.265625.125-.5.109375-2.109375-1.0625 1.265625-2.671875 1.265625-2 0-3.09375-1.4375-1.09375-1.4375-1.09375-3.453125 0-1.390625.5-2.5625.515625-1.171875 1.453125-1.796875.953125-.640625 2.25-.640625 1.703125 0 2.8125 1.375v-1.15625h1.515625v8.359375q0 2.265625-.46875 3.203125-.453125.9375-1.453125 1.484375-.984375.546875-2.453125.546875-1.71875 0-2.796875-.78125-1.0625-.765625-1.03125-2.34375zm1.359375-5.8125q0 1.90625.75 2.78125.765625.875 1.90625.875 1.125 0 1.890625-.859375.765625-.875.765625-2.734375 0-1.78125-.796875-2.671875-.78125-.90625-1.890625-.90625-1.09375 0-1.859375.890625-.765625.875-.765625 2.625zm8.672607 2.125 1.625-.25q.125.96875.75 1.5.625.515625 1.75.515625 1.125 0 1.671875-.453125.546875-.46875.546875-1.09375 0-.546875-.484375-.875-.328125-.21875-1.671875-.546875-1.8125-.46875-2.515625-.796875-.6875-.328125-1.046875-.90625-.359375-.59375-.359375-1.3125 0-.640625.296875-1.1875.296875-.5625.8125-.921875.375-.28125 1.03125-.46875.671875-.203125 1.421875-.203125 1.140625 0 2 .328125.859375.328125 1.265625.890625.421875.5625.578125 1.5l-1.609375.21875q-.109375-.75-.640625-1.171875-.515625-.421875-1.46875-.421875-1.140625 0-1.625.375-.46875.375-.46875.875 0 .3125.1875.578125.203125.265625.640625.4375.234375.09375 1.4375.421875 1.75.453125 2.4375.75.6875.296875 1.078125.859375.390625.5625.390625 1.40625 0 .828125-.484375 1.546875-.46875.71875-1.375 1.125-.90625.390625-2.046875.390625-1.875 0-2.875-.78125-.984375-.78125-1.25-2.328125zm21.480164-.65625 1.609375.21875q-.265625 1.65625-1.359375 2.609375-1.078125.9375-2.671875.9375-1.984375 0-3.1875-1.296875-1.203125-1.296875-1.203125-3.71875 0-1.578125.515625-2.75.515625-1.171875 1.578125-1.75 1.0625-.59375 2.3125-.59375 1.578125 0 2.578125.796875 1 .796875 1.28125 2.265625l-1.59375.234375q-.234375-.96875-.8125-1.453125-.578125-.5-1.390625-.5-1.234375 0-2.015625.890625-.78125.890625-.78125 2.8125 0 1.953125.75 2.84375.75.875 1.953125.875.96875 0 1.609375-.59375.65625-.59375.828125-1.828125zm2.96875 3.546875v-13.359375h1.640625v13.359375zm10.504211-1.1875q-.921875.765625-1.765625 1.09375-.828125.3125-1.796875.3125-1.59375 0-2.453125-.78125-.859375-.78125-.859375-1.984375 0-.71875.328125-1.296875.328125-.59375.84375-.9375.53125-.359375 1.1875-.546875.46875-.125 1.453125-.25 1.984375-.234375 2.921875-.5625.015625-.34375.015625-.421875 0-1-.46875-1.421875-.625-.546875-1.875-.546875-1.15625 0-1.703125.40625-.546875.40625-.8125 1.421875l-1.609375-.21875q.21875-1.015625.71875-1.640625.5-.640625 1.453125-.984375.953125-.34375 2.1875-.34375 1.25 0 2.015625.296875.78125.28125 1.140625.734375.375.4375.515625 1.109375.078125.421875.078125 1.515625v2.1875q0 2.28125.109375 2.890625.109375.59375.40625 1.15625h-1.703125q-.265625-.515625-.328125-1.1875zm-.140625-3.671875q-.890625.375-2.671875.625-1.015625.140625-1.4375.328125-.421875.1875-.65625.53125-.21875.34375-.21875.78125 0 .65625.5 1.09375.5.4375 1.453125.4375.9375 0 1.671875-.40625.75-.421875 1.09375-1.140625.265625-.5625.265625-1.640625zm3.5476074 1.96875 1.625-.25q.125.96875.75 1.5.625.515625 1.75.515625 1.125 0 1.671875-.453125.546875-.46875.546875-1.09375 0-.546875-.484375-.875-.328125-.21875-1.671875-.546875-1.8125-.46875-2.515625-.796875-.6875-.328125-1.046875-.90625-.359375-.59375-.359375-1.3125 0-.640625.296875-1.1875.296875-.5625.8125-.921875.375-.28125 1.03125-.46875.671875-.203125 1.421875-.203125 1.140625 0 2 .328125.859375.328125 1.265625.890625.421875.5625.578125 1.5l-1.609375.21875q-.109375-.75-.640625-1.171875-.515625-.421875-1.46875-.421875-1.140625 0-1.625.375-.46875.375-.46875.875 0 .3125.1875.578125.203125.265625.640625.4375.234375.09375 1.4375.421875 1.75.453125 2.4375.75.6875.296875 1.078125.859375.390625.5625.390625 1.40625 0 .828125-.484375 1.546875-.46875.71875-1.375 1.125-.90625.390625-2.046875.390625-1.875 0-2.875-.78125-.984375-.78125-1.25-2.328125zm9.328125 0 1.625-.25q.125.96875.75 1.5.625.515625 1.75.515625 1.125 0 1.671875-.453125.546875-.46875.546875-1.09375 0-.546875-.484375-.875-.328125-.21875-1.671875-.546875-1.8125-.46875-2.515625-.796875-.6875-.328125-1.046875-.90625-.359375-.59375-.359375-1.3125 0-.640625.296875-1.1875.296875-.5625.8125-.921875.375-.28125 1.03125-.46875.671875-.203125 1.421875-.203125 1.140625 0 2 .328125.859375.328125 1.265625.890625.421875.5625.578125 1.5l-1.609375.21875q-.109375-.75-.640625-1.171875-.515625-.421875-1.46875-.421875-1.140625 0-1.625.375-.46875.375-.46875.875 0 .3125.1875.578125.203125.265625.640625.4375.234375.09375 1.4375.421875 1.75.453125 2.4375.75.6875.296875 1.078125.859375.390625.5625.390625 1.40625 0 .828125-.484375 1.546875-.46875.71875-1.375 1.125-.90625.390625-2.046875.390625-1.875 0-2.875-.78125-.984375-.78125-1.25-2.328125zm10.40625 2.890625v-1.875h1.875v1.875q0 1.03125-.375 1.65625-.359375.640625-1.15625.984375l-.453125-.703125q.515625-.21875.765625-.671875.25-.4375.28125-1.265625z" fill="#000"/><path d="m587.70795 288.49524 1.625-.25q.125.96875.75 1.5.625.515625 1.75.515625 1.125 0 1.671875-.453125.546875-.46875.546875-1.09375 0-.546875-.484375-.875-.328125-.21875-1.671875-.546875-1.8125-.46875-2.515625-.796875-.6875-.328125-1.046875-.90625-.359375-.59375-.359375-1.3125 0-.640625.296875-1.1875.296875-.5625.8125-.921875.375-.28125 1.03125-.46875.671875-.203125 1.421875-.203125 1.140625 0 2 .328125.859375.328125 1.265625.890625.421875.5625.578125 1.5l-1.609375.21875q-.109375-.75-.640625-1.171875-.515625-.421875-1.46875-.421875-1.140625 0-1.625.375-.46875.375-.46875.875 0 .3125.1875.578125.203125.265625.640625.4375.234375.09375 1.4375.421875 1.75.453125 2.4375.75.6875.296875 1.078125.859375.390625.5625.390625 1.40625 0 .828125-.484375 1.546875-.46875.71875-1.375 1.125-.90625.390625-2.046875.390625-1.875 0-2.875-.78125-.984375-.78125-1.25-2.328125zm16.609375-.21875 1.6875.203125q-.40625 1.484375-1.484375 2.3125-1.078125.8125-2.765625.8125-2.125 0-3.375-1.296875-1.234375-1.3125-1.234375-3.671875 0-2.453125 1.25-3.796875 1.265625-1.34375 3.265625-1.34375 1.9375 0 3.15625 1.328125 1.234375 1.3125 1.234375 3.703125 0 .15625 0 .4375h-7.21875q.09375 1.59375.90625 2.453125.8125.84375 2.015625.84375.90625 0 1.546875-.46875.640625-.484375 1.015625-1.515625zm-5.390625-2.65625h5.40625q-.109375-1.21875-.625-1.828125-.78125-.953125-2.03125-.953125-1.125 0-1.90625.765625-.765625.75-.84375 2.015625zm9.125732 5.765625v-9.671875h1.46875v1.46875q.5625-1.03125 1.03125-1.359375.484375-.328125 1.0625-.328125.828125 0 1.6875.53125l-.5625 1.515625q-.609375-.359375-1.203125-.359375-.546875 0-.96875.328125-.421875.328125-.609375.890625-.28125.875-.28125 1.921875v5.0625zm8.9157715 0-3.6875-9.671875h1.734375l2.078125 5.796875q.328125.9375.625 1.9375.203125-.765625.609375-1.828125l2.140625-5.90625h1.6875l-3.65625 9.671875zm6.640625-11.46875v-1.890625h1.640625v1.890625zm0 11.46875v-9.671875h1.640625v9.671875zm10.457336-3.546875 1.609375.21875q-.265625 1.65625-1.359375 2.609375-1.078125.9375-2.671875.9375-1.984375 0-3.1875-1.296875-1.203125-1.296875-1.203125-3.71875 0-1.578125.515625-2.75.515625-1.171875 1.578125-1.75 1.0625-.59375 2.3125-.59375 1.578125 0 2.578125.796875 1 .796875 1.28125 2.265625l-1.59375.234375q-.234375-.96875-.8125-1.453125-.578125-.5-1.390625-.5-1.234375 0-2.015625.890625-.78125.890625-.78125 2.8125 0 1.953125.75 2.84375.75.875 1.953125.875.96875 0 1.609375-.59375.65625-.59375.828125-1.828125zm9.640625.4375 1.6875.203125q-.40625 1.484375-1.484375 2.3125-1.078125.8125-2.765625.8125-2.125 0-3.375-1.296875-1.234375-1.3125-1.234375-3.671875 0-2.453125 1.25-3.796875 1.265625-1.34375 3.265625-1.34375 1.9375 0 3.15625 1.328125 1.234375 1.3125 1.234375 3.703125 0 .15625 0 .4375h-7.21875q.09375 1.59375.90625 2.453125.8125.84375 2.015625.84375.90625 0 1.546875-.46875.640625-.484375 1.015625-1.515625zm-5.390625-2.65625h5.40625q-.109375-1.21875-.625-1.828125-.78125-.953125-2.03125-.953125-1.125 0-1.90625.765625-.765625.75-.84375 2.015625zm8.485107 2.875 1.625-.25q.125.96875.75 1.5.625.515625 1.75.515625 1.125 0 1.671875-.453125.546875-.46875.546875-1.09375 0-.546875-.484375-.875-.328125-.21875-1.671875-.546875-1.8125-.46875-2.515625-.796875-.6875-.328125-1.046875-.90625-.359375-.59375-.359375-1.3125 0-.640625.296875-1.1875.296875-.5625.8125-.921875.375-.28125 1.03125-.46875.671875-.203125 1.421875-.203125 1.140625 0 2 .328125.859375.328125 1.265625.890625.421875.5625.578125 1.5l-1.609375.21875q-.109375-.75-.640625-1.171875-.515625-.421875-1.46875-.421875-1.140625 0-1.625.375-.46875.375-.46875.875 0 .3125.1875.578125.203125.265625.640625.4375.234375.09375 1.4375.421875 1.75.453125 2.4375.75.6875.296875 1.078125.859375.390625.5625.390625 1.40625 0 .828125-.484375 1.546875-.46875.71875-1.375 1.125-.90625.390625-2.046875.390625-1.875 0-2.875-.78125-.984375-.78125-1.25-2.328125zm10.40625 2.890625v-1.875h1.875v1.875q0 1.03125-.375 1.65625-.359375.640625-1.15625.984375l-.453125-.703125q.515625-.21875.765625-.671875.25-.4375.28125-1.265625zm16.569702-3.109375 1.6875.203125q-.40625 1.484375-1.484375 2.3125-1.078125.8125-2.765625.8125-2.125 0-3.375-1.296875-1.234375-1.3125-1.234375-3.671875 0-2.453125 1.25-3.796875 1.265625-1.34375 3.265625-1.34375 1.9375 0 3.15625 1.328125 1.234375 1.3125 1.234375 3.703125 0 .15625 0 .4375h-7.21875q.09375 1.59375.90625 2.453125.8125.84375 2.015625.84375.90625 0 1.546875-.46875.640625-.484375 1.015625-1.515625zm-5.390625-2.65625h5.40625q-.109375-1.21875-.625-1.828125-.78125-.953125-2.03125-.953125-1.125 0-1.90625.765625-.765625.75-.84375 2.015625zm12.719482 4.296875.234375 1.453125q-.6875.140625-1.234375.140625-.890625 0-1.390625-.28125-.484375-.28125-.6875-.734375-.203125-.46875-.203125-1.9375v-5.578125h-1.203125v-1.265625h1.203125v-2.390625l1.625-.984375v3.375h1.65625v1.265625h-1.65625v5.671875q0 .6875.078125.890625.09375.203125.28125.328125.203125.109375.578125.109375.265625 0 .71875-.0625zm7.9176636-2.078125 1.609375.21875q-.265625 1.65625-1.359375 2.609375-1.078125.9375-2.671875.9375-1.984375 0-3.1875-1.296875-1.203125-1.296875-1.203125-3.71875 0-1.578125.515625-2.75.515625-1.171875 1.578125-1.75 1.0625-.59375 2.3125-.59375 1.578125 0 2.578125.796875 1 .796875 1.28125 2.265625l-1.59375.234375q-.234375-.96875-.8125-1.453125-.578125-.5-1.390625-.5-1.234375 0-2.015625.890625-.78125.890625-.78125 2.8125 0 1.953125.75 2.84375.75.875 1.953125.875.96875 0 1.609375-.59375.65625-.59375.828125-1.828125zm3.46875 3.546875v-1.875h1.875v1.875z" fill="#000"/><path d="m554.28345 392.81262c0-8.2453 6.684143-14.929413 14.929443-14.929413h144.69232c3.9595337 0 7.756897 1.5729065 10.556702 4.372711 2.7998047 2.7998352 4.3727417 6.597168 4.3727417 10.556702v59.715942c0 8.2453-6.684143 14.929443-14.929443 14.929443h-144.69232c-8.2453 0-14.929443-6.684143-14.929443-14.929443z" fill="#cfe2f3" fill-rule="evenodd"/><path d="m554.28345 392.81262c0-8.2453 6.684143-14.929413 14.929443-14.929413h144.69232c3.9595337 0 7.756897 1.5729065 10.556702 4.372711 2.7998047 2.7998352 4.3727417 6.597168 4.3727417 10.556702v59.715942c0 8.2453-6.684143 14.929443-14.929443 14.929443h-144.69232c-8.2453 0-14.929443-6.684143-14.929443-14.929443z" fill-rule="evenodd" stroke="#000" stroke-linecap="butt" stroke-linejoin="round"/><path d="m612.6763 418.5906-3.53125-13.359375h1.8125l2.03125 8.765625q.328125 1.375.5625 2.71875.5-2.140625.59375-2.46875l2.546875-9.015625h2.125l1.921875 6.765625q.71875 2.515625 1.03125 4.71875.265625-1.265625.671875-2.890625l2.09375-8.59375h1.78125l-3.671875 13.359375h-1.703125l-2.8125-10.171875q-.359375-1.28125-.421875-1.5625-.203125.90625-.390625 1.5625l-2.828125 10.171875zm15.280518 0v-13.359375h5.046875q1.328125 0 2.03125.125.96875.171875 1.640625.640625.671875.453125 1.078125 1.28125.40625.828125.40625 1.828125 0 1.703125-1.09375 2.890625-1.078125 1.171875-3.921875 1.171875h-3.421875v5.421875zm1.765625-7h3.453125q1.71875 0 2.4375-.640625.71875-.640625.71875-1.796875 0-.84375-.421875-1.4375-.421875-.59375-1.125-.78125-.4375-.125-1.640625-.125h-3.421875zm9.8341675 2.984375v-1.640625h5.03125v1.640625zm16.587708-.671875 1.765625.453125q-.5625 2.171875-2 3.328125-1.4375 1.140625-3.53125 1.140625-2.15625 0-3.515625-.875-1.34375-.890625-2.0625-2.546875-.703125-1.671875-.703125-3.59375 0-2.078125.796875-3.625.796875-1.5625 2.265625-2.359375 1.484375-.8125 3.25-.8125 2 0 3.359375 1.015625 1.375 1.015625 1.90625 2.875l-1.734375.40625q-.46875-1.453125-1.359375-2.109375-.875-.671875-2.203125-.671875-1.546875 0-2.578125.734375-1.03125.734375-1.453125 1.984375-.421875 1.234375-.421875 2.5625 0 1.703125.5 2.96875.5 1.265625 1.546875 1.90625 1.046875.625 2.265625.625 1.484375 0 2.515625-.859375 1.03125-.859375 1.390625-2.546875zm3.8635864 4.6875v-13.359375h1.78125v11.78125h6.5625v1.578125zm10.750671 0v-13.359375h1.765625v13.359375z" fill="#000"/><path d="m604.835 435.9031 1.765625.453125q-.5625 2.171875-2 3.328125-1.4375 1.140625-3.53125 1.140625-2.15625 0-3.515625-.875-1.34375-.890625-2.0625-2.546875-.703125-1.671875-.703125-3.59375 0-2.078125.796875-3.625.796875-1.5625 2.265625-2.359375 1.484375-.8125 3.25-.8125 2 0 3.359375 1.015625 1.375 1.015625 1.90625 2.875l-1.734375.40625q-.46875-1.453125-1.359375-2.109375-.875-.671875-2.203125-.671875-1.546875 0-2.578125.734375-1.03125.734375-1.453125 1.984375-.421875 1.234375-.421875 2.5625 0 1.703125.5 2.96875.5 1.265625 1.546875 1.90625 1.046875.625 2.265625.625 1.484375 0 2.515625-.859375 1.03125-.859375 1.390625-2.546875zm3.1292114-.15625q0-2.6875 1.484375-3.96875 1.25-1.078125 3.046875-1.078125 2 0 3.265625 1.3125 1.265625 1.296875 1.265625 3.609375 0 1.859375-.5625 2.9375-.5625 1.0625-1.640625 1.65625-1.0625.59375-2.328125.59375-2.03125 0-3.28125-1.296875-1.25-1.3125-1.25-3.765625zm1.6875 0q0 1.859375.796875 2.796875.8125.921875 2.046875.921875 1.21875 0 2.03125-.921875.8125-.9375.8125-2.84375 0-1.796875-.8125-2.71875-.8125-.921875-2.03125-.921875-1.234375 0-2.046875.921875-.796875.90625-.796875 2.765625zm9.297607 4.84375v-9.671875h1.46875v1.359375q.453125-.71875 1.203125-1.140625.765625-.4375 1.71875-.4375 1.078125 0 1.765625.453125.6875.4375.96875 1.234375 1.15625-1.6875 2.984375-1.6875 1.453125 0 2.21875.796875.78125.796875.78125 2.453125v6.640625h-1.640625v-6.09375q0-.984375-.15625-1.40625-.15625-.4375-.578125-.703125-.421875-.265625-.984375-.265625-1.015625 0-1.6875.6875-.671875.671875-.671875 2.15625v5.625h-1.640625v-6.28125q0-1.09375-.40625-1.640625-.40625-.546875-1.3125-.546875-.6875 0-1.28125.359375-.59375.359375-.859375 1.0625-.25.703125-.25 2.03125v5.015625zm15.5407715 0v-9.671875h1.46875v1.359375q.453125-.71875 1.203125-1.140625.765625-.4375 1.71875-.4375 1.078125 0 1.765625.453125.6875.4375.96875 1.234375 1.15625-1.6875 2.984375-1.6875 1.453125 0 2.21875.796875.78125.796875.78125 2.453125v6.640625h-1.640625v-6.09375q0-.984375-.15625-1.40625-.15625-.4375-.578125-.703125-.421875-.265625-.984375-.265625-1.015625 0-1.6875.6875-.671875.671875-.671875 2.15625v5.625h-1.640625v-6.28125q0-1.09375-.40625-1.640625-.40625-.546875-1.3125-.546875-.6875 0-1.28125.359375-.59375.359375-.859375 1.0625-.25.703125-.25 2.03125v5.015625zm21.853333-1.1875q-.921875.765625-1.765625 1.09375-.828125.3125-1.796875.3125-1.59375 0-2.453125-.78125-.859375-.78125-.859375-1.984375 0-.71875.328125-1.296875.328125-.59375.84375-.9375.53125-.359375 1.1875-.546875.46875-.125 1.453125-.25 1.984375-.234375 2.921875-.5625.015625-.34375.015625-.421875 0-1-.46875-1.421875-.625-.546875-1.875-.546875-1.15625 0-1.703125.40625-.546875.40625-.8125 1.421875l-1.609375-.21875q.21875-1.015625.71875-1.640625.5-.640625 1.453125-.984375.953125-.34375 2.1875-.34375 1.25 0 2.015625.296875.78125.28125 1.140625.734375.375.4375.515625 1.109375.078125.421875.078125 1.515625v2.1875q0 2.28125.109375 2.890625.109375.59375.40625 1.15625h-1.703125q-.265625-.515625-.328125-1.1875zm-.140625-3.671875q-.890625.375-2.671875.625-1.015625.140625-1.4375.328125-.421875.1875-.65625.53125-.21875.34375-.21875.78125 0 .65625.5 1.09375.5.4375 1.453125.4375.9375 0 1.671875-.40625.75-.421875 1.09375-1.140625.265625-.5625.265625-1.640625zm4.2037964 4.859375v-9.671875h1.46875v1.375q1.0625-1.59375 3.078125-1.59375.875 0 1.609375.3125.734375.3125 1.09375.828125.375.5.515625 1.203125.09375.453125.09375 1.59375v5.953125h-1.640625v-5.890625q0-1-.203125-1.484375-.1875-.5-.671875-.796875-.484375-.296875-1.140625-.296875-1.046875 0-1.8125.671875-.75.65625-.75 2.515625v5.28125zm16.641357 0v-1.21875q-.90625 1.4375-2.703125 1.4375-1.15625 0-2.125-.640625-.96875-.640625-1.5-1.78125-.53125-1.140625-.53125-2.625 0-1.453125.484375-2.625.484375-1.1875 1.4375-1.8125.96875-.625 2.171875-.625.875 0 1.546875.375.6875.359375 1.109375.953125v-4.796875h1.640625v13.359375zm-5.171875-4.828125q0 1.859375.78125 2.78125.78125.921875 1.84375.921875 1.078125 0 1.828125-.875.75-.890625.75-2.6875 0-1.984375-.765625-2.90625-.765625-.9375-1.890625-.9375-1.078125 0-1.8125.890625-.734375.890625-.734375 2.8125zm8.625732 1.9375 1.625-.25q.125.96875.75 1.5.625.515625 1.75.515625 1.125 0 1.671875-.453125.546875-.46875.546875-1.09375 0-.546875-.484375-.875-.328125-.21875-1.671875-.546875-1.8125-.46875-2.515625-.796875-.6875-.328125-1.046875-.90625-.359375-.59375-.359375-1.3125 0-.640625.296875-1.1875.296875-.5625.8125-.921875.375-.28125 1.03125-.46875.671875-.203125 1.421875-.203125 1.140625 0 2 .328125.859375.328125 1.265625.890625.421875.5625.578125 1.5l-1.609375.21875q-.109375-.75-.640625-1.171875-.515625-.421875-1.46875-.421875-1.140625 0-1.625.375-.46875.375-.46875.875 0 .3125.1875.578125.203125.265625.640625.4375.234375.09375 1.4375.421875 1.75.453125 2.4375.75.6875.296875 1.078125.859375.390625.5625.390625 1.40625 0 .828125-.484375 1.546875-.46875.71875-1.375 1.125-.90625.390625-2.046875.390625-1.875 0-2.875-.78125-.984375-.78125-1.25-2.328125z" fill="#000"/><path d="m471.93832 273.46588 82.33072-149.19685" fill="none"/><path d="m471.93832 273.46588 79.431854-143.94362" fill-rule="evenodd" stroke="#000" stroke-linecap="butt" stroke-linejoin="round"/><path d="m552.8163 130.3203.74645996-4.7713165-3.638733 3.1752625z" fill="#000" fill-rule="evenodd" stroke="#000" stroke-linecap="butt"/><path d="m471.93832 273.46588h82.33072" fill="none"/><path d="m471.93832 273.46588h82.33072" fill-rule="evenodd" stroke="#000" stroke-linecap="butt" stroke-linejoin="round"/><path d="m471.93832 273.46588 82.33072 149.19684" fill="none"/><path d="m471.93832 273.46588 79.431854 143.9436" fill-rule="evenodd" stroke="#000" stroke-linecap="butt" stroke-linejoin="round"/><path d="m549.924 418.20752 3.638733 3.1752625-.74645996-4.771332z" fill="#000" fill-rule="evenodd" stroke="#000" stroke-linecap="butt"/><path d="m641.5591 169.04855v59.622055" fill="none"/><path d="m641.5591 175.04855v53.622055" fill-rule="evenodd" stroke="#000" stroke-linecap="butt" stroke-linejoin="round"/><path d="m643.2108 175.04855-1.6517334-4.538101-1.6517334 4.538101z" fill="#000" fill-rule="evenodd" stroke="#000" stroke-linecap="butt"/><path d="m641.5591 318.2533v59.62204" fill="none"/><path d="m641.5591 318.2533v53.62204" fill-rule="evenodd" stroke="#000" stroke-linecap="butt" stroke-linejoin="round"/><path d="m639.90735 371.87534 1.6517334 4.538086 1.6517334-4.538086z" fill="#000" fill-rule="evenodd" stroke="#000" stroke-linecap="butt"/><path d="m205.84776 273.46588h82.3307" fill="none"/><path d="m205.84776 273.46588h76.3307" fill-rule="evenodd" stroke="#000" stroke-linecap="butt" stroke-linejoin="round"/><path d="m282.17847 275.1176 4.5381165-1.6517334-4.5381165-1.6517334z" fill="#000" fill-rule="evenodd" stroke="#000" stroke-linecap="butt"/><path d="m109.391075 242.45801v-46.015747" fill="none"/><g fill-rule="evenodd" stroke="#000" stroke-linecap="butt"><path d="m109.391075 242.45801v-40.015747" stroke-linejoin="round"/><path d="m111.04281 202.44226-1.6517334-4.538101-1.6517334 4.538101z" fill="#000"/></g></g></svg>